g Body
v -1.133952 0.300136 0.204331
v -1.130859 -0.215048 0.204331
v -1.067538 -0.214668 0.623296
v -1.177406 0.042274 0.211133
v -1.165442 -0.14697 -0.021776
v -1.167715 0.231648 -0.021776
v -1.102657 0.323241 0.412305
v -1.099289 -0.237776 0.412305
v -1.092438 0.042784 0.467681
v -1.112898 -0.361155 0.317366
v -1.194375 -0.305671 0.355856
v -1.256028 0.031829 0.472456
v -1.186179 -0.205664 0.414056
v -1.189035 0.270144 0.414056
v -1.242285 -0.12865 0.045905
v -1.244212 0.192461 0.045905
v -1.289788 0.031626 0.249085
v -1.212954 -0.186388 0.23767
v -1.215577 0.250547 0.23767
v -1.070631 0.300516 0.623296
v -1.046864 -0.225896 0.509588
v -1.053706 0.043016 0.725044
v -1.08271 -0.44195 0.513886
v -1.168772 -0.374194 0.522528
v -1.161873 0.25087 0.593001
v -1.147519 0.03248 0.679295
v -1.15925 -0.186066 0.593001
v -1.012934 0.075127 -1.012765
v -0.872873 0.618122 -1.012765
v -0.48674 0.73641 -1.012765
v -0.175258 -0.585927 -1.012765
v -0.117592 0.526925 -1.012765
v -0.524066 0.016098 -0.577743
v -0.29214 -0.011907 -0.647234
v -0.506358 0.357823 -0.647234
v -0.755991 0.044102 -0.647234
v -0.541773 -0.325628 -0.647234
v -0.331229 0.258441 -0.647235
v -0.358587 -0.26951 -0.647234
v -0.716902 -0.226245 -0.647234
v -0.689544 0.301706 -0.647234
v -0.811311 0.511869 -0.824123
v -0.8588 -0.404572 -0.824123
v -0.23682 -0.479674 -0.824123
v -0.189332 0.436767 -0.824123
v -0.554803 -0.577085 -0.824123
v -0.926653 0.064709 -0.824123
v -0.493328 0.60928 -0.824123
v -0.121478 -0.032513 -0.824123
v -0.524065 0.016098 -1.012765
v -0.035196 -0.042932 -1.012765
v -0.561391 -0.704215 -1.012765
v -0.930539 -0.494729 -1.012765
v 0.600378 0.613913 -0.488057
v 0.600378 -0.613912 -0.488057
v -0.627447 -0.613912 -0.488057
v -0.627447 0.613913 -0.488057
v 0.737567 0.751101 1.012765
v 0.737566 -0.751101 1.012765
v -0.764636 -0.751101 1.012765
v -0.764636 0.751101 1.012765
v 0.92525 -0.492923 -1.012765
v 0.557034 -0.704043 -1.012765
v 0.027915 -0.045097 -1.012765
v 0.516517 0.016098 -1.012765
v 0.11415 -0.034296 -0.824123
v 0.483152 0.609138 -0.824123
v 0.918885 0.066492 -0.824123
v 0.549883 -0.576943 -0.824123
v 0.179923 0.43528 -0.824123
v 0.231471 -0.480941 -0.824123
v 0.853112 -0.403085 -0.824123
v 0.801564 0.513137 -0.824123
v 0.680729 0.302436 -0.647234
v 0.710426 -0.225388 -0.647234
v 0.352306 -0.270241 -0.647234
v 0.322609 0.257584 -0.647235
v 0.535739 -0.325546 -0.647234
v 0.748317 0.045129 -0.647234
v 0.497296 0.357742 -0.647234
v 0.284718 -0.012934 -0.647234
v 0.516518 0.016098 -0.577743
v 0.107785 0.525119 -1.012765
v 0.170381 -0.587466 -1.012765
v 0.476001 0.736238 -1.012765
v 0.862654 0.619661 -1.012765
v 1.00512 0.077292 -1.012765
v 1.15925 -0.186066 0.593001
v 1.147519 0.03248 0.679295
v 1.161873 0.25087 0.593001
v 1.168772 -0.374194 0.522528
v 1.08271 -0.44195 0.513886
v 1.053706 0.043016 0.725045
v 1.02908 -0.225896 0.509589
v 1.070631 0.300516 0.623296
v 1.215577 0.250547 0.23767
v 1.212954 -0.186388 0.23767
v 1.289788 0.031626 0.249085
v 1.244212 0.192461 0.045905
v 1.242285 -0.12865 0.045905
v 1.189035 0.270144 0.414056
v 1.186179 -0.205664 0.414056
v 1.256028 0.031829 0.472457
v 1.194375 -0.305671 0.355856
v 1.112898 -0.361155 0.317366
v 1.092438 0.042784 0.467681
v 1.099289 -0.237776 0.412305
v 1.102657 0.323241 0.412305
v 1.167715 0.231648 -0.021776
v 1.165442 -0.14697 -0.021776
v 1.177406 0.042274 0.211133
v 1.067538 -0.214668 0.623296
v 1.130859 -0.215048 0.204331
v 1.133952 0.300136 0.204331
v -1.099289 -0.237776 0.412305
v -1.08271 -0.44195 0.513886
v -1.130859 -0.215048 0.204331
v -1.186179 -0.205664 0.414056
v -1.099289 -0.237776 0.412305
v -1.102657 0.323241 0.412305
v -1.133952 0.300136 0.204331
v -1.167715 0.231648 -0.021776
v -1.165442 -0.14697 -0.021776
v -1.053706 0.043016 0.725044
v -1.067538 -0.214668 0.623296
v -1.070631 0.300516 0.623296
v -1.08271 -0.44195 0.513886
v -1.112898 -0.361155 0.317366
v -1.112898 -0.361155 0.317366
v -0.035196 -0.042932 -1.012765
v -0.48674 0.73641 -1.012765
v -0.117592 0.526925 -1.012765
v -0.872873 0.618122 -1.012765
v -1.012934 0.075127 -1.012765
v -0.175258 -0.585927 -1.012765
v -0.561391 -0.704215 -1.012765
v -0.930539 -0.494729 -1.012765
v 0.600378 0.613913 -0.488057
v 0.600378 -0.613912 -0.488057
v 0.600378 -0.613912 -0.488057
v 0.737566 -0.751101 1.012765
v -0.627447 -0.613912 -0.488057
v -0.627447 -0.613912 -0.488057
v -0.764636 -0.751101 1.012765
v -0.627447 0.613913 -0.488057
v 0.737567 0.751101 1.012765
v -0.627447 0.613913 -0.488057
v 0.600378 0.613913 -0.488057
v -0.764636 0.751101 1.012765
v 0.737567 0.751101 1.012765
v -0.764636 -0.751101 1.012765
v -0.764636 0.751101 1.012765
v 0.737566 -0.751101 1.012765
v 0.107785 0.525119 -1.012765
v 0.027915 -0.045097 -1.012765
v 0.170381 -0.587466 -1.012765
v 0.476001 0.736238 -1.012765
v 0.862654 0.619661 -1.012765
v 0.92525 -0.492923 -1.012765
v 1.00512 0.077292 -1.012765
v 0.557034 -0.704043 -1.012765
v 1.08271 -0.44195 0.513886
v 1.112898 -0.361155 0.317366
v 1.102657 0.323241 0.412305
v 1.070631 0.300516 0.623296
v 1.067538 -0.214668 0.623296
v 1.053706 0.043016 0.725045
v 1.099289 -0.237776 0.412305
v 1.08271 -0.44195 0.513886
v 1.099289 -0.237776 0.412305
v 1.186179 -0.205664 0.414056
v 1.112898 -0.361155 0.317366
v 1.133952 0.300136 0.204331
v 1.130859 -0.215048 0.204331
v 1.167715 0.231648 -0.021776
v 1.165442 -0.14697 -0.021776
vt 0.625394 0.984118
vt 0.638561 0.848384
vt 0.961947 0.773896
vt 0.63224 0.916097
vt 0.576892 0.860795
vt 0.567137 0.959853
vt 0.680415 0.995307
vt 0.694265 0.848076
vt 0.702356 0.922491
vt 0.894279 0.712958
vt 0.899082 0.742026
vt 0.903946 0.850195
vt 0.884513 0.784351
vt 0.901054 0.913039
vt 0.798194 0.830386
vt 0.80853 0.901067
vt 0.850965 0.8576
vt 0.837611 0.802205
vt 0.855383 0.913137
vt 0.964807 0.919656
vt 0.723989 0.854829
vt 0.989709 0.848247
vt 0.953772 0.723098
vt 0.94232 0.74047
vt 0.943961 0.900331
vt 0.960677 0.845919
vt 0.936789 0.788848
vt 0.421012 0.996094
vt 0.520231 0.961981
vt 0.54226 0.897742
vt 0.321793 0.833505
vt 0.508907 0.825696
vt 0.421012 0.897742
vt 0.421012 0.868759
vt 0.463507 0.897742
vt 0.421012 0.926727
vt 0.378516 0.897742
vt 0.450983 0.874376
vt 0.386784 0.876436
vt 0.391041 0.92111
vt 0.455239 0.919049
vt 0.488825 0.940298
vt 0.361109 0.945122
vt 0.353198 0.855187
vt 0.480914 0.850363
vt 0.336791 0.897742
vt 0.421012 0.960318
vt 0.505232 0.897742
vt 0.421012 0.835167
vt 0.148312 0.899328
vt 0.421012 0.799392
vt 0.299763 0.897742
vt 0.333116 0.969789
vt 0.996094 0.691406
vt 0.789999 0.691808
vt 0.789063 0.484375
vt 0.996094 0.484375
vt 0.75 0.261719
vt 0.503906 0.261719
vt 0.25 0.261719
vt 0.25 0.261719
vt 0.052339 0.822449
vt 0.017401 0.899727
vt 0.148312 0.99704
vt 0.148312 0.899328
vt 0.421012 0.835167
vt 0.505232 0.897742
vt 0.421012 0.960318
vt 0.336791 0.897742
vt 0.480914 0.850363
vt 0.353198 0.855187
vt 0.361109 0.945122
vt 0.488825 0.940298
vt 0.455239 0.919049
vt 0.391041 0.92111
vt 0.386784 0.876436
vt 0.450983 0.874376
vt 0.378516 0.897742
vt 0.421012 0.926727
vt 0.463507 0.897742
vt 0.421012 0.868759
vt 0.421012 0.897742
vt 0.262581 0.97895
vt 0.047992 0.974395
vt 0.291353 0.899172
vt 0.255004 0.827131
vt 0.148312 0.801616
vt 0.936789 0.788848
vt 0.960677 0.845919
vt 0.943961 0.900331
vt 0.94232 0.74047
vt 0.953772 0.723098
vt 0.771934 0.929179
vt 0.723989 0.854829
vt 0.964807 0.919656
vt 0.855383 0.913137
vt 0.837611 0.802205
vt 0.850965 0.8576
vt 0.80853 0.901067
vt 0.798194 0.830386
vt 0.901054 0.913039
vt 0.884513 0.784351
vt 0.903946 0.850195
vt 0.899082 0.742026
vt 0.894279 0.712958
vt 0.702356 0.922491
vt 0.694265 0.848076
vt 0.908806 0.939703
vt 0.787194 0.919318
vt 0.770916 0.824565
vt 0.63224 0.916097
vt 0.753947 0.858603
vt 0.821031 0.781744
vt 0.848824 0.940456
vt 0.861491 0.762536
vt 0.953772 0.723098
vt 0.821031 0.781744
vt 0.884513 0.784351
vt 0.861172 0.762945
vt 0.908806 0.939703
vt 0.848824 0.940456
vt 0.787194 0.919318
vt 0.770916 0.824565
vt 0.771934 0.929179
vt 0.753947 0.858603
vt 0.737544 0.994962
vt 0.727851 0.799218
vt 0.67394 0.81302
vt 0.894279 0.712958
vt 0.148312 0.99704
vt 0.291353 0.899172
vt 0.262581 0.97895
vt 0.255004 0.827131
vt 0.148312 0.801616
vt 0.047992 0.974395
vt 0.017401 0.899727
vt 0.052339 0.822449
vt 0.725885 0.003226
vt 0.524475 0.003226
vt 0.477385 0.002533
vt 0.5 0.261719
vt 0.275975 0.002533
vt 0.027352 0.002325
vt 0 0.261719
vt 0.228762 0.002325
vt 0.753906 0.261719
vt 0.973995 0.004039
vt 0.773507 0.004039
vt 1 0.261719
vt 0.996094 0.484375
vt 0.789063 0.269531
vt 0.789063 0.484375
vt 0.996094 0.269531
vt 0.508907 0.825696
vt 0.421012 0.799392
vt 0.321793 0.833505
vt 0.54226 0.897742
vt 0.520231 0.961981
vt 0.333116 0.969789
vt 0.421012 0.996094
vt 0.299763 0.897742
vt 0.727851 0.799218
vt 0.67394 0.81302
vt 0.680415 0.995307
vt 0.737544 0.994962
vt 0.961947 0.773896
vt 0.989709 0.848247
vt 0.861172 0.762945
vt 0.953772 0.723098
vt 0.861491 0.762536
vt 0.884513 0.784351
vt 0.894279 0.712958
vt 0.625394 0.984118
vt 0.638561 0.848384
vt 0.567137 0.959853
vt 0.576892 0.860795
vn 0.9775799 -0.12793502 -0.16724332
vn 0.9881967 0.08829071 -0.12518784
vn -0.34535694 -0.3424271 0.8737689
vn 0.9904282 -0.013825038 -0.13733481
vn 0.9969982 0.07663348 -0.0110479165
vn 0.9974917 -0.045992535 -0.053805463
vn 0.9802058 -0.040498566 -0.19379495
vn 0.963375 0.039217416 -0.26527455
vn 0.97628164 0.018525211 -0.21571036
vn -0.44351327 -0.16868274 -0.88025117
vn -0.78657335 -0.021271937 -0.61713034
vn -0.9740123 -0.005829119 0.22642009
vn -0.968117 -0.08935901 -0.23401806
vn -0.7887342 0.59026885 0.17170015
vn -0.78618026 -0.44771984 -0.42599002
vn -0.8851599 0.31633565 -0.3412091
vn -0.99881077 -0.0021668163 0.048707586
vn -0.7766767 -0.62585205 -0.07129226
vn -0.7814143 0.623996 -0.0045473645
vn -0.5315893 0.6348675 0.5606745
vn 0.9964857 -0.04513805 -0.070560634
vn -0.43746385 -0.009033717 0.89919055
vn -0.57767206 -0.7019778 0.41655993
vn -0.7893224 -0.49014106 0.36977267
vn -0.6924777 0.51934296 0.50075686
vn -0.7249831 -0.014954398 0.6886043
vn -0.7673268 -0.24046487 0.59446305
vn -0.90726966 0.049013563 0.41768342
vn -0.6260245 0.5741406 0.5276893
vn 0.09302228 0.82416886 0.5586525
vn 0.6260245 -0.5741406 0.5276893
vn 0.7218379 0.47625065 0.50213087
vn -0 0 1
vn 0.54352045 -0.028322026 0.83891803
vn 0.051942717 0.42967185 0.9014899
vn -0.54352045 0.028322026 0.83891803
vn -0.051942717 -0.42967185 0.9014899
vn 0.41921532 0.24815373 0.87331444
vn 0.36296052 -0.29514766 0.88382554
vn -0.41921532 -0.24815373 0.87331444
vn -0.36296052 0.29514766 0.88382554
vn -0.55573756 0.5039757 0.66118395
vn -0.6441161 -0.42178085 0.6381343
vn 0.55573756 -0.5039757 0.66118395
vn 0.6441161 0.42178085 0.6381343
vn -0.08212711 -0.7212292 0.6878107
vn -0.8289886 0.044893503 0.5574607
vn 0.08212711 0.7212292 0.6878107
vn 0.8289886 -0.044893503 0.5574607
vn -0 0 -1
vn 0.90726966 -0.049013563 0.41768342
vn -0.09302228 -0.82416886 0.5586525
vn -0.7218379 -0.47625065 0.50213087
vn -0 0 -1
vn -0 0 -1
vn -0 0 -1
vn -0 0 -1
vn 0.9958501 0 -0.091009036
vn 0.9958501 0 -0.091009036
vn -0 -0.9958501 -0.091009036
vn -0.9958501 0 -0.091009036
vn -0 0 -1
vn -0 0 -1
vn -0 0 -1
vn -0 0 -1
vn -0.8287787 -0.04858653 0.5574632
vn -0.08533127 0.72085994 0.68780786
vn 0.8287787 0.04858653 0.5574632
vn 0.08533127 -0.72085994 0.68780786
vn -0.6459811 0.41891408 0.6381375
vn -0.5535022 -0.5064411 0.6611752
vn 0.6459811 -0.41891408 0.6381375
vn 0.5535022 0.5064411 0.6611752
vn 0.36165026 0.29673633 0.8838306
vn 0.42031363 -0.24629183 0.8733136
vn -0.36165026 -0.29673633 0.8838306
vn -0.42031363 0.24629183 0.8733136
vn 0.05383513 -0.42942977 0.90149426
vn 0.5433957 0.030732911 0.8389139
vn -0.05383513 0.42942977 0.90149426
vn -0.5433957 -0.030732911 0.8389139
vn -0 0 1
vn -0 0 -1
vn -0 0 -1
vn -0 0 -1
vn -0 0 -1
vn -0 0 -1
vn 0.7673268 -0.24046487 0.59446305
vn 0.7249831 -0.014954398 0.6886043
vn 0.6924777 0.51934296 0.50075686
vn 0.7893224 -0.49014106 0.36977267
vn 0.57767206 -0.7019778 0.41655993
vn -0.9990741 0.018921858 -0.038637217
vn -0.99701583 -0.066744424 -0.038789287
vn 0.5315893 0.6348675 0.5606745
vn 0.7814143 0.623996 -0.0045473645
vn 0.7766767 -0.62585205 -0.07129226
vn 0.99881077 -0.0021668163 0.048707586
vn 0.8851599 0.31633565 -0.3412091
vn 0.78618026 -0.44771984 -0.42599002
vn 0.7887342 0.59026885 0.17170015
vn 0.968117 -0.08935901 -0.23401806
vn 0.9740123 -0.005829119 0.22642009
vn 0.78657335 -0.021271937 -0.61713034
vn 0.44351327 -0.16868274 -0.88025117
vn -0.9723007 0.047182176 -0.22892204
vn -0.94981056 0.06405926 -0.3061966
vn 0.52099025 0.8501074 0.07672482
vn 0.707781 0.46850702 -0.5287223
vn 0.62742424 -0.5323859 -0.56824654
vn -0.9904282 -0.013825038 -0.13733481
vn -0.9218139 -0.2007579 0.33159542
vn 0.37330812 -0.9186212 -0.12952253
vn 0.5435455 0.8346063 -0.089390494
vn 0.09241223 0.5568539 -0.82545364
vn -0.57767206 -0.7019778 0.41655993
vn -0.37330812 -0.9186212 -0.12952253
vn -0.968117 -0.08935901 -0.23401806
vn -0.34709567 -0.9365143 -0.04965486
vn -0.52099025 0.8501074 0.07672482
vn -0.5435455 0.8346063 -0.089390494
vn -0.707781 0.46850702 -0.5287223
vn -0.62742424 -0.5323859 -0.56824654
vn 0.9974446 0.012482174 -0.07034574
vn 0.9713335 -0.1420362 0.19062272
vn 0.9888087 0.0063479077 -0.14905374
vn 0.9923855 -0.11362214 -0.047548566
vn 0.9567389 -0.06357098 -0.2839179
vn -0.44351327 -0.16868274 -0.88025117
vn -0 0 -1
vn -0 0 -1
vn -0 0 -1
vn -0 0 -1
vn -0 0 -1
vn -0 0 -1
vn -0 0 -1
vn -0 0 -1
vn 0.9958501 0 -0.091009036
vn 0.9958501 0 -0.091009036
vn -0 -0.9958501 -0.091009036
vn -0 -0.9958501 -0.091009036
vn -0 -0.9958501 -0.091009036
vn -0.9958501 0 -0.091009036
vn -0.9958501 0 -0.091009036
vn -0.9958501 0 -0.091009036
vn -0 0.9958501 -0.091009036
vn -0 0.9958501 -0.091009036
vn -0 0.9958501 -0.091009036
vn -0 0.9958501 -0.091009036
vn -0 0 1
vn -0 0 1
vn -0 0 1
vn -0 0 1
vn -0.7239428 0.4730455 0.5021302
vn -0.9070468 -0.05301101 0.4176792
vn -0.62348145 -0.57690877 0.52768093
vn -0.09668502 0.8237454 0.55865514
vn 0.62348145 0.57690877 0.52768093
vn 0.7239428 -0.4730455 0.5021302
vn 0.9070468 0.05301101 0.4176792
vn 0.09668502 -0.8237454 0.55865514
vn -0.98582965 -0.1676722 -0.005096698
vn -0.9351332 -0.093998566 -0.34159935
vn -0.9802058 -0.040498566 -0.19379495
vn -0.9888087 0.0063479077 -0.14905374
vn 0.34535694 -0.3424271 0.8737689
vn 0.43746385 -0.009033717 0.89919055
vn 0.34709567 -0.9365143 -0.04965486
vn 0.57767206 -0.7019778 0.41655993
vn -0.09241223 0.5568539 -0.82545364
vn 0.968117 -0.08935901 -0.23401806
vn 0.44351327 -0.16868274 -0.88025117
vn -0.9775799 -0.12793502 -0.16724332
vn -0.9881967 0.08829071 -0.12518784
vn -0.9974917 -0.045992535 -0.053805463
vn -0.9969982 0.07663348 -0.0110479165
g Body_0
f 11/11/11 115/115/115 10/10/10
f 13/13/13 115/115/115 11/11/11
f 3/3/3 27/27/27 23/23/23
f 26/26/26 27/27/27 3/3/3
f 22/22/22 26/26/26 3/3/3
f 25/25/25 26/26/26 22/22/22
f 20/20/20 25/25/25 22/22/22
f 14/14/14 25/25/25 20/20/20
f 120/120/120 14/14/14 20/20/20
f 19/19/19 14/14/14 120/120/120
f 121/121/121 19/19/19 120/120/120
f 16/16/16 19/19/19 121/121/121
f 122/122/122 16/16/16 121/121/121
f 15/15/15 16/16/16 122/122/122
f 123/123/123 15/15/15 122/122/122
f 18/18/18 15/15/15 123/123/123
f 117/117/117 18/18/18 123/123/123
f 118/118/118 18/18/18 117/117/117
f 119/119/119 118/118/118 117/117/117
f 27/27/27 24/24/24 116/116/116
f 11/11/11 24/24/24 27/27/27
f 118/118/118 11/11/11 27/27/27
f 4/4/4 5/5/5 6/6/6
f 1/1/1 4/4/4 6/6/6
f 9/9/9 4/4/4 1/1/1
f 7/7/7 9/9/9 1/1/1
f 124/124/124 9/9/9 7/7/7
f 126/126/126 124/124/124 7/7/7
f 21/21/21 124/124/124 125/125/125
f 127/127/127 21/21/21 125/125/125
f 8/8/8 21/21/21 127/127/127
f 128/128/128 8/8/8 127/127/127
f 24/24/24 129/129/129 23/23/23
f 11/11/11 129/129/129 24/24/24
f 50/50/50 134/134/134 133/133/133
f 131/131/131 50/50/50 133/133/133
f 130/130/130 50/50/50 131/131/131
f 132/132/132 130/130/130 131/131/131
f 50/50/50 130/130/130 135/135/135
f 136/136/136 50/50/50 135/135/135
f 134/134/134 50/50/50 136/136/136
f 137/137/137 134/134/134 136/136/136
f 56/56/56 54/54/54 55/55/55
f 57/57/57 54/54/54 56/56/56
f 59/59/59 138/138/138 58/58/58
f 139/139/139 138/138/138 59/59/59
f 60/60/60 140/140/140 141/141/141
f 142/142/142 140/140/140 60/60/60
f 61/61/61 143/143/143 144/144/144
f 145/145/145 143/143/143 61/61/61
f 147/147/147 146/146/146 148/148/148
f 149/149/149 146/146/146 147/147/147
f 151/151/151 150/150/150 152/152/152
f 153/153/153 150/150/150 151/151/151
f 65/65/65 85/85/85 86/86/86
f 87/87/87 65/65/65 86/86/86
f 63/63/63 65/65/65 87/87/87
f 62/62/62 63/63/63 87/87/87
f 65/65/65 63/63/63 84/84/84
f 64/64/64 65/65/65 84/84/84
f 85/85/85 65/65/65 64/64/64
f 83/83/83 85/85/85 64/64/64
f 101/101/101 108/108/108 95/95/95
f 90/90/90 101/101/101 95/95/95
f 103/103/103 101/101/101 90/90/90
f 89/89/89 103/103/103 90/90/90
f 102/102/102 103/103/103 89/89/89
f 88/88/88 102/102/102 89/89/89
f 104/104/104 102/102/102 88/88/88
f 91/91/91 104/104/104 88/88/88
f 105/105/105 104/104/104 91/91/91
f 92/92/92 105/105/105 91/91/91
f 93/93/93 165/165/165 164/164/164
f 106/106/106 93/93/93 164/164/164
f 94/94/94 93/93/93 106/106/106
f 107/107/107 94/94/94 106/106/106
f 162/162/162 94/94/94 107/107/107
f 163/163/163 162/162/162 107/107/107
f 96/96/96 108/108/108 101/101/101
f 114/114/114 108/108/108 96/96/96
f 99/99/99 114/114/114 96/96/96
f 109/109/109 114/114/114 99/99/99
f 100/100/100 109/109/109 99/99/99
f 110/110/110 109/109/109 100/100/100
f 97/97/97 110/110/110 100/100/100
f 113/113/113 110/110/110 97/97/97
f 102/102/102 113/113/113 97/97/97
f 168/168/168 113/113/113 102/102/102
f 88/88/88 169/169/169 91/91/91
f 167/167/167 90/90/90 95/95/95
f 89/89/89 90/90/90 167/167/167
f 166/166/166 89/89/89 167/167/167
f 88/88/88 89/89/89 166/166/166
f 92/92/92 88/88/88 166/166/166
f 104/104/104 170/170/170 171/171/171
f 172/172/172 170/170/170 104/104/104
f 4/4/4 2/2/2 5/5/5
f 8/8/8 2/2/2 4/4/4
f 9/9/9 8/8/8 4/4/4
f 21/21/21 8/8/8 9/9/9
f 124/124/124 21/21/21 9/9/9
f 43/43/43 52/52/52 46/46/46
f 53/53/53 52/52/52 43/43/43
f 47/47/47 53/53/53 43/43/43
f 28/28/28 53/53/53 47/47/47
f 42/42/42 28/28/28 47/47/47
f 29/29/29 28/28/28 42/42/42
f 48/48/48 29/29/29 42/42/42
f 30/30/30 29/29/29 48/48/48
f 45/45/45 30/30/30 48/48/48
f 32/32/32 30/30/30 45/45/45
f 49/49/49 32/32/32 45/45/45
f 51/51/51 32/32/32 49/49/49
f 44/44/44 51/51/51 49/49/49
f 31/31/31 51/51/51 44/44/44
f 46/46/46 31/31/31 44/44/44
f 52/52/52 31/31/31 46/46/46
f 70/70/70 154/154/154 66/66/66
f 157/157/157 154/154/154 70/70/70
f 67/67/67 157/157/157 70/70/70
f 158/158/158 157/157/157 67/67/67
f 73/73/73 158/158/158 67/67/67
f 160/160/160 158/158/158 73/73/73
f 68/68/68 160/160/160 73/73/73
f 159/159/159 160/160/160 68/68/68
f 72/72/72 159/159/159 68/68/68
f 161/161/161 159/159/159 72/72/72
f 69/69/69 161/161/161 72/72/72
f 156/156/156 161/161/161 69/69/69
f 71/71/71 156/156/156 69/69/69
f 155/155/155 156/156/156 71/71/71
f 66/66/66 155/155/155 71/71/71
f 154/154/154 155/155/155 66/66/66
f 112/112/112 94/94/94 162/162/162
f 93/93/93 94/94/94 112/112/112
f 111/111/111 174/174/174 107/107/107
f 106/106/106 111/111/111 107/107/107
f 173/173/173 111/111/111 106/106/106
f 164/164/164 173/173/173 106/106/106
f 111/111/111 176/176/176 174/174/174
f 175/175/175 176/176/176 111/111/111
f 173/173/173 175/175/175 111/111/111
f 12/12/12 26/26/26 25/25/25
f 118/118/118 26/26/26 12/12/12
f 17/17/17 118/118/118 12/12/12
f 18/18/18 118/118/118 17/17/17
f 15/15/15 18/18/18 17/17/17
f 17/17/17 16/16/16 15/15/15
f 19/19/19 16/16/16 17/17/17
f 12/12/12 19/19/19 17/17/17
f 14/14/14 19/19/19 12/12/12
f 25/25/25 14/14/14 12/12/12
f 27/27/27 26/26/26 118/118/118
f 34/34/34 44/44/44 49/49/49
f 39/39/39 44/44/44 34/34/34
f 33/33/33 39/39/39 34/34/34
f 37/37/37 39/39/39 33/33/33
f 40/40/40 37/37/37 33/33/33
f 43/43/43 37/37/37 40/40/40
f 47/47/47 43/43/43 40/40/40
f 36/36/36 42/42/42 47/47/47
f 41/41/41 42/42/42 36/36/36
f 33/33/33 41/41/41 36/36/36
f 35/35/35 41/41/41 33/33/33
f 38/38/38 35/35/35 33/33/33
f 45/45/45 35/35/35 38/38/38
f 49/49/49 45/45/45 38/38/38
f 36/36/36 40/40/40 33/33/33
f 47/47/47 40/40/40 36/36/36
f 34/34/34 38/38/38 33/33/33
f 49/49/49 38/38/38 34/34/34
f 48/48/48 35/35/35 45/45/45
f 41/41/41 35/35/35 48/48/48
f 42/42/42 41/41/41 48/48/48
f 46/46/46 37/37/37 43/43/43
f 39/39/39 37/37/37 46/46/46
f 44/44/44 39/39/39 46/46/46
f 72/72/72 78/78/78 69/69/69
f 75/75/75 78/78/78 72/72/72
f 68/68/68 75/75/75 72/72/72
f 79/79/79 75/75/75 68/68/68
f 73/73/73 79/79/79 68/68/68
f 74/74/74 79/79/79 73/73/73
f 67/67/67 74/74/74 73/73/73
f 80/80/80 74/74/74 67/67/67
f 70/70/70 80/80/80 67/67/67
f 77/77/77 80/80/80 70/70/70
f 66/66/66 77/77/77 70/70/70
f 81/81/81 77/77/77 66/66/66
f 71/71/71 81/81/81 66/66/66
f 76/76/76 81/81/81 71/71/71
f 69/69/69 76/76/76 71/71/71
f 78/78/78 76/76/76 69/69/69
f 82/82/82 77/77/77 81/81/81
f 80/80/80 77/77/77 82/82/82
f 74/74/74 80/80/80 82/82/82
f 82/82/82 78/78/78 75/75/75
f 76/76/76 78/78/78 82/82/82
f 81/81/81 76/76/76 82/82/82
f 79/79/79 82/82/82 75/75/75
f 74/74/74 82/82/82 79/79/79
f 96/96/96 101/101/101 103/103/103
f 98/98/98 96/96/96 103/103/103
f 99/99/99 96/96/96 98/98/98
f 100/100/100 99/99/99 98/98/98
f 98/98/98 97/97/97 100/100/100
f 102/102/102 97/97/97 98/98/98
f 103/103/103 102/102/102 98/98/98
