g Head
v -0.848992 0.944274 0.85026
v -0.848992 -0.756245 0.85026
v 0.851528 -0.756246 0.85026
v 0.851529 0.944274 0.85026
v -0.848991 0.944274 -0.85026
v -0.848992 -0.756245 -0.85026
v 0.851528 -0.756246 -0.85026
v 0.851528 0.944274 -0.85026
v -0.848992 0.944274 0.85026
v -0.848991 0.944274 -0.85026
v -0.848992 -0.756245 0.85026
v -0.848992 -0.756245 -0.85026
v 0.851528 0.944274 -0.85026
v 0.851528 -0.756246 0.85026
v 0.851529 0.944274 0.85026
v 0.851528 -0.756246 -0.85026
v 0.851529 0.944274 0.85026
v -0.848992 -0.756245 0.85026
v -0.848992 0.944274 0.85026
v 0.851528 -0.756246 0.85026
v 0.851528 0.944274 -0.85026
v -0.848992 -0.756245 -0.85026
v 0.851528 -0.756246 -0.85026
v -0.848991 0.944274 -0.85026
vt 0.003906 0.789063
vt 0.265625 0.53125
vt 0.26446 0.531984
vt 0.265625 0.789063
vt 0.003906 0.53125
vt 0.265625 0.269531
vt 0.26446 0.269669
vt 0.26446 0.531984
vt 0.003906 0.53125
vt 0.003906 0.269531
vt 0.526241 0.531984
vt 0.526241 0.269669
vt 0.78125 0.273438
vt 0.523438 0.527344
vt 0.78125 0.527344
vt 0.523438 0.273438
vt 0.523438 0.527344
vt 0.265625 0.792969
vt 0.265625 0.53125
vt 0.523438 0.789063
vt 0.78125 0.789063
vt 0.526241 0.531984
vt 0.78125 0.53125
vt 0.527344 0.789063
vn -0 1 0
vn -1 0 0
vn -0 -1 0
vn -0 1 0
vn -0 1 0
vn -1 0 0
vn -0 -1 0
vn -0 1 0
vn -1 0 0
vn -1 0 0
vn -0 -1 0
vn -0 -1 0
vn 1 0 0
vn 1 0 0
vn 1 0 0
vn 1 0 0
vn -0 0 1
vn -0 0 1
vn -0 0 1
vn -0 0 1
vn -0 0 -1
vn -0 0 -1
vn -0 0 -1
vn -0 0 -1
g Head_0
f 4/4/4 5/5/5 1/1/1
f 8/8/8 5/5/5 4/4/4
f 6/6/6 9/9/9 10/10/10
f 2/2/2 9/9/9 6/6/6
f 11/11/11 7/7/7 3/3/3
f 12/12/12 7/7/7 11/11/11
f 14/14/14 13/13/13 15/15/15
f 16/16/16 13/13/13 14/14/14
f 18/18/18 17/17/17 19/19/19
f 20/20/20 17/17/17 18/18/18
f 22/22/22 21/21/21 23/23/23
f 24/24/24 21/21/21 22/22/22
