g pCylinder1
v 0.95105714 -1 -0.30901718
v 0.80901754 -1 -0.5877856
v 0.5877856 -1 -0.8090175
v 0.30901715 -1 -0.951057
v -0 -1 -1.0000005
v -0.30901715 -1 -0.95105696
v -0.5877855 -1 -0.8090173
v -0.80901724 -1 -0.5877854
v -0.9510568 -1 -0.30901706
v -1.0000002 -1 0
v -0.9510568 -1 0.30901706
v -0.8090172 -1 0.58778536
v -0.58778536 -1 0.8090171
v -0.30901706 -1 0.95105666
v -2.9802322E-08 -1 1.0000001
v 0.30901697 -1 0.9510566
v 0.58778524 -1 0.80901706
v 0.809017 -1 0.5877853
v 0.95105654 -1 0.309017
v 1 -1 0
v 0.95105714 1 -0.30901718
v 0.80901754 1 -0.5877856
v 0.5877856 1 -0.8090175
v 0.30901715 1 -0.951057
v -0 1 -1.0000005
v -0.30901715 1 -0.95105696
v -0.5877855 1 -0.8090173
v -0.80901724 1 -0.5877854
v -0.9510568 1 -0.30901706
v -1.0000002 1 0
v -0.9510568 1 0.30901706
v -0.8090172 1 0.58778536
v -0.58778536 1 0.8090171
v -0.30901706 1 0.95105666
v -2.9802322E-08 1 1.0000001
v 0.30901697 1 0.9510566
v 0.58778524 1 0.80901706
v 0.809017 1 0.5877853
v 0.95105654 1 0.309017
v 1 1 0
v -0 -1 0
v -0 1 0
v 0.95105714 1 -0.30901718
v 0.95105714 -1 -0.30901718
v 0.80901754 -1 -0.5877856
v 0.95105714 -1 -0.30901718
v 0.5877856 -1 -0.8090175
v -0 -1 0
v 0.30901715 -1 -0.951057
v -0 -1 0
v -0 -1 -1.0000005
v -0 -1 0
v -0.30901715 -1 -0.95105696
v -0 -1 0
v -0.5877855 -1 -0.8090173
v -0 -1 0
v -0.80901724 -1 -0.5877854
v -0 -1 0
v -0.9510568 -1 -0.30901706
v -0 -1 0
v -1.0000002 -1 0
v -0 -1 0
v -0.9510568 -1 0.30901706
v -0 -1 0
v -0.8090172 -1 0.58778536
v -0 -1 0
v -0.58778536 -1 0.8090171
v -0 -1 0
v -0.30901706 -1 0.95105666
v -0 -1 0
v -2.9802322E-08 -1 1.0000001
v -0 -1 0
v 0.30901697 -1 0.9510566
v -0 -1 0
v 0.58778524 -1 0.80901706
v -0 -1 0
v 0.809017 -1 0.5877853
v -0 -1 0
v 0.95105654 -1 0.309017
v -0 -1 0
v 1 -1 0
v -0 -1 0
v 0.95105714 -1 -0.30901718
v -0 -1 0
v 0.95105714 1 -0.30901718
v 0.80901754 1 -0.5877856
v -0 1 0
v 0.5877856 1 -0.8090175
v -0 1 0
v 0.30901715 1 -0.951057
v -0 1 0
v -0 1 -1.0000005
v -0 1 0
v -0.30901715 1 -0.95105696
v -0 1 0
v -0.5877855 1 -0.8090173
v -0 1 0
v -0.80901724 1 -0.5877854
v -0 1 0
v -0.9510568 1 -0.30901706
v -0 1 0
v -1.0000002 1 0
v -0 1 0
v -0.9510568 1 0.30901706
v -0 1 0
v -0.8090172 1 0.58778536
v -0 1 0
v -0.58778536 1 0.8090171
v -0 1 0
v -0.30901706 1 0.95105666
v -0 1 0
v -2.9802322E-08 1 1.0000001
v -0 1 0
v 0.30901697 1 0.9510566
v -0 1 0
v 0.58778524 1 0.80901706
v -0 1 0
v 0.809017 1 0.5877853
v -0 1 0
v 0.95105654 1 0.309017
v -0 1 0
v 1 1 0
v -0 1 0
v 0.95105714 1 -0.30901718
vt 0 0.15915494
vt 0.05 0.15915494
vt 0.1 0.15915494
vt 0.15 0.15915494
vt 0.2 0.15915494
vt 0.25 0.15915494
vt 0.3 0.15915494
vt 0.35000002 0.15915494
vt 0.40000004 0.15915494
vt 0.45000005 0.15915494
vt 0.50000006 0.15915494
vt 0.5500001 0.15915494
vt 0.6000001 0.15915494
vt 0.6500001 0.15915494
vt 0.7000001 0.15915494
vt 0.7500001 0.15915494
vt 0.80000013 0.15915494
vt 0.85000014 0.15915494
vt 0.90000015 0.15915494
vt 0.95000017 0.15915494
vt 0 0.4774648
vt 0.05 0.4774648
vt 0.1 0.4774648
vt 0.15 0.4774648
vt 0.2 0.4774648
vt 0.25 0.4774648
vt 0.3 0.4774648
vt 0.35000002 0.4774648
vt 0.40000004 0.4774648
vt 0.45000005 0.4774648
vt 0.50000006 0.4774648
vt 0.5500001 0.4774648
vt 0.6000001 0.4774648
vt 0.6500001 0.4774648
vt 0.7000001 0.4774648
vt 0.7500001 0.4774648
vt 0.80000013 0.4774648
vt 0.85000014 0.4774648
vt 0.90000015 0.4774648
vt 0.95000017 0.4774648
vt 0.5 0
vt 0.5 0.63661975
vt 1.0000001 0.4774648
vt 1.0000001 0.15915494
vt 0.05 0.15915494
vt 0 0.15915494
vt 0.1 0.15915494
vt 0.5 0
vt 0.15 0.15915494
vt 0.5 0
vt 0.2 0.15915494
vt 0.5 0
vt 0.25 0.15915494
vt 0.5 0
vt 0.3 0.15915494
vt 0.5 0
vt 0.35000002 0.15915494
vt 0.5 0
vt 0.40000004 0.15915494
vt 0.5 0
vt 0.45000005 0.15915494
vt 0.5 0
vt 0.50000006 0.15915494
vt 0.5 0
vt 0.5500001 0.15915494
vt 0.5 0
vt 0.6000001 0.15915494
vt 0.5 0
vt 0.6500001 0.15915494
vt 0.5 0
vt 0.7000001 0.15915494
vt 0.5 0
vt 0.7500001 0.15915494
vt 0.5 0
vt 0.80000013 0.15915494
vt 0.5 0
vt 0.85000014 0.15915494
vt 0.5 0
vt 0.90000015 0.15915494
vt 0.5 0
vt 0.95000017 0.15915494
vt 0.5 0
vt 1.0000001 0.15915494
vt 0.5 0
vt 0 0.4774648
vt 0.05 0.4774648
vt 0.5 0.63661975
vt 0.1 0.4774648
vt 0.5 0.63661975
vt 0.15 0.4774648
vt 0.5 0.63661975
vt 0.2 0.4774648
vt 0.5 0.63661975
vt 0.25 0.4774648
vt 0.5 0.63661975
vt 0.3 0.4774648
vt 0.5 0.63661975
vt 0.35000002 0.4774648
vt 0.5 0.63661975
vt 0.40000004 0.4774648
vt 0.5 0.63661975
vt 0.45000005 0.4774648
vt 0.5 0.63661975
vt 0.50000006 0.4774648
vt 0.5 0.63661975
vt 0.5500001 0.4774648
vt 0.5 0.63661975
vt 0.6000001 0.4774648
vt 0.5 0.63661975
vt 0.6500001 0.4774648
vt 0.5 0.63661975
vt 0.7000001 0.4774648
vt 0.5 0.63661975
vt 0.7500001 0.4774648
vt 0.5 0.63661975
vt 0.80000013 0.4774648
vt 0.5 0.63661975
vt 0.85000014 0.4774648
vt 0.5 0.63661975
vt 0.90000015 0.4774648
vt 0.5 0.63661975
vt 0.95000017 0.4774648
vt 0.5 0.63661975
vt 1.0000001 0.4774648
vn 0.9510569 0 -0.309016
vn 0.809017 0 -0.58778524
vn 0.5877851 0 -0.8090171
vn 0.3090168 0 -0.95105654
vn -0 0 -1
vn -0.30901712 0 -0.9510565
vn -0.5877855 0 -0.8090168
vn -0.8090171 0 -0.5877851
vn -0.95105654 0 -0.3090169
vn -1 0 0
vn -0.95105654 0 0.30901703
vn -0.8090169 0 0.58778536
vn -0.5877852 0 0.80901706
vn -0.30901697 0 0.95105654
vn -0 0 1
vn 0.3090171 0 0.95105654
vn 0.58778524 0 0.809017
vn 0.809017 0 0.58778524
vn 0.95105654 0 0.30901694
vn 1 0 0
vn 0.9510569 0 -0.309016
vn 0.809017 0 -0.58778524
vn 0.5877851 0 -0.8090171
vn 0.3090168 0 -0.95105654
vn -0 0 -1
vn -0.30901712 0 -0.9510565
vn -0.5877855 0 -0.8090168
vn -0.8090171 0 -0.5877851
vn -0.95105654 0 -0.3090169
vn -1 0 0
vn -0.95105654 0 0.30901703
vn -0.8090169 0 0.58778536
vn -0.5877852 0 0.80901706
vn -0.30901697 0 0.95105654
vn -0 0 1
vn 0.3090171 0 0.95105654
vn 0.58778524 0 0.809017
vn 0.809017 0 0.58778524
vn 0.95105654 0 0.30901694
vn 1 0 0
vn -0 -1 0
vn -0 1 0
vn 0.9510569 0 -0.309016
vn 0.9510569 0 -0.309016
vn -0 -1 0
vn -0 -1 0
vn -0 -1 0
vn -0 -1 0
vn -0 -1 0
vn -0 -1 0
vn -0 -1 0
vn -0 -1 0
vn -0 -1 0
vn -0 -1 0
vn -0 -1 0
vn -0 -1 0
vn -0 -1 0
vn -0 -1 0
vn -0 -1 0
vn -0 -1 0
vn -0 -1 0
vn -0 -1 0
vn -0 -1 0
vn -0 -1 0
vn -0 -1 0
vn -0 -1 0
vn -0 -1 0
vn -0 -1 0
vn -0 -1 0
vn -0 -1 0
vn -0 -1 0
vn -0 -1 0
vn -0 -1 0
vn -0 -1 0
vn -0 -1 0
vn -0 -1 0
vn -0 -1 0
vn -0 -1 0
vn -0 -1 0
vn -0 -1 0
vn -0 -1 0
vn -0 -1 0
vn -0 -1 0
vn -0 -1 0
vn -0 1 0
vn -0 1 0
vn -0 1 0
vn -0 1 0
vn -0 1 0
vn -0 1 0
vn -0 1 0
vn -0 1 0
vn -0 1 0
vn -0 1 0
vn -0 1 0
vn -0 1 0
vn -0 1 0
vn -0 1 0
vn -0 1 0
vn -0 1 0
vn -0 1 0
vn -0 1 0
vn -0 1 0
vn -0 1 0
vn -0 1 0
vn -0 1 0
vn -0 1 0
vn -0 1 0
vn -0 1 0
vn -0 1 0
vn -0 1 0
vn -0 1 0
vn -0 1 0
vn -0 1 0
vn -0 1 0
vn -0 1 0
vn -0 1 0
vn -0 1 0
vn -0 1 0
vn -0 1 0
vn -0 1 0
vn -0 1 0
vn -0 1 0
vn -0 1 0
g pCylinder1_0
f 41/41/41 45/45/45 46/46/46
f 48/48/48 47/47/47 45/45/45
f 50/50/50 49/49/49 47/47/47
f 52/52/52 51/51/51 49/49/49
f 54/54/54 53/53/53 51/51/51
f 56/56/56 55/55/55 53/53/53
f 58/58/58 57/57/57 55/55/55
f 60/60/60 59/59/59 57/57/57
f 62/62/62 61/61/61 59/59/59
f 64/64/64 63/63/63 61/61/61
f 66/66/66 65/65/65 63/63/63
f 68/68/68 67/67/67 65/65/65
f 70/70/70 69/69/69 67/67/67
f 72/72/72 71/71/71 69/69/69
f 74/74/74 73/73/73 71/71/71
f 76/76/76 75/75/75 73/73/73
f 78/78/78 77/77/77 75/75/75
f 80/80/80 79/79/79 77/77/77
f 82/82/82 81/81/81 79/79/79
f 84/84/84 83/83/83 81/81/81
f 42/42/42 85/85/85 86/86/86
f 87/87/87 86/86/86 88/88/88
f 89/89/89 88/88/88 90/90/90
f 91/91/91 90/90/90 92/92/92
f 93/93/93 92/92/92 94/94/94
f 95/95/95 94/94/94 96/96/96
f 97/97/97 96/96/96 98/98/98
f 99/99/99 98/98/98 100/100/100
f 101/101/101 100/100/100 102/102/102
f 103/103/103 102/102/102 104/104/104
f 105/105/105 104/104/104 106/106/106
f 107/107/107 106/106/106 108/108/108
f 109/109/109 108/108/108 110/110/110
f 111/111/111 110/110/110 112/112/112
f 113/113/113 112/112/112 114/114/114
f 115/115/115 114/114/114 116/116/116
f 117/117/117 116/116/116 118/118/118
f 119/119/119 118/118/118 120/120/120
f 121/121/121 120/120/120 122/122/122
f 123/123/123 122/122/122 124/124/124
f 20/20/20 44/44/44 43/43/43
f 40/40/40 20/20/20 43/43/43
f 19/19/19 20/20/20 40/40/40
f 39/39/39 19/19/19 40/40/40
f 18/18/18 19/19/19 39/39/39
f 38/38/38 18/18/18 39/39/39
f 17/17/17 18/18/18 38/38/38
f 37/37/37 17/17/17 38/38/38
f 16/16/16 17/17/17 37/37/37
f 36/36/36 16/16/16 37/37/37
f 15/15/15 16/16/16 36/36/36
f 35/35/35 15/15/15 36/36/36
f 14/14/14 15/15/15 35/35/35
f 34/34/34 14/14/14 35/35/35
f 13/13/13 14/14/14 34/34/34
f 33/33/33 13/13/13 34/34/34
f 12/12/12 13/13/13 33/33/33
f 32/32/32 12/12/12 33/33/33
f 11/11/11 12/12/12 32/32/32
f 31/31/31 11/11/11 32/32/32
f 10/10/10 11/11/11 31/31/31
f 30/30/30 10/10/10 31/31/31
f 9/9/9 10/10/10 30/30/30
f 29/29/29 9/9/9 30/30/30
f 8/8/8 9/9/9 29/29/29
f 28/28/28 8/8/8 29/29/29
f 7/7/7 8/8/8 28/28/28
f 27/27/27 7/7/7 28/28/28
f 6/6/6 7/7/7 27/27/27
f 26/26/26 6/6/6 27/27/27
f 5/5/5 6/6/6 26/26/26
f 25/25/25 5/5/5 26/26/26
f 4/4/4 5/5/5 25/25/25
f 24/24/24 4/4/4 25/25/25
f 3/3/3 4/4/4 24/24/24
f 23/23/23 3/3/3 24/24/24
f 2/2/2 3/3/3 23/23/23
f 22/22/22 2/2/2 23/23/23
f 1/1/1 2/2/2 22/22/22
f 21/21/21 1/1/1 22/22/22
